<?xml version="1.0" standalone="no"?>
<!DOCTYPE svg PUBLIC "-//W3C//DTD SVG 20010904//EN"
 "http://www.w3.org/TR/2001/REC-SVG-20010904/DTD/svg10.dtd">
<svg version="1.0" xmlns="http://www.w3.org/2000/svg"
 width="300.000000pt" height="277.000000pt" viewBox="0 0 300.000000 277.000000"
 preserveAspectRatio="xMidYMid meet">
<metadata>
Created by potrace 1.10, written by Peter Selinger 2001-2011
</metadata>
<g transform="translate(0.000000,277.000000) scale(0.100000,-0.100000)"
fill="#000000" stroke="none">
<path d="M722 2464 c-31 -22 -27 -49 13 -90 19 -19 35 -45 35 -57 0 -12 -18
-44 -39 -70 -22 -26 -41 -52 -43 -59 -6 -18 -49 -2 -115 42 -66 44 -129 54
-153 25 -20 -24 2 -55 70 -98 64 -40 80 -70 80 -154 0 -53 32 -93 97 -121 84
-36 111 -35 36 2 -81 40 -113 74 -113 121 0 72 -49 174 -84 175 -22 1 -46 28
-40 43 5 15 10 15 41 2 19 -8 48 -24 64 -36 31 -22 74 -27 120 -15 28 8 99 93
99 119 0 9 4 19 10 22 11 7 19 -21 23 -90 3 -47 4 -46 5 13 2 64 -14 120 -45
154 -8 10 -20 15 -24 12 -5 -3 -12 2 -16 11 -8 21 15 37 42 29 34 -10 55 -35
66 -78 13 -50 45 -86 75 -86 12 0 32 -8 43 -18 20 -16 21 -21 12 -62 -16 -70
-13 -115 9 -141 l20 -24 -14 40 c-11 34 -11 47 0 85 28 94 15 128 -54 139 -40
7 -55 26 -72 99 -17 69 -95 104 -148 66z"/>
<path d="M806 2385 c9 -14 23 -42 30 -63 l13 -37 -1 33 c-1 18 -8 38 -15 44
-7 6 -13 16 -13 23 0 7 -7 15 -15 19 -13 5 -13 2 1 -19z"/>
<path d="M1242 2373 c37 -2 100 -2 140 0 40 1 10 3 -67 3 -77 0 -110 -1 -73
-3z"/>
<path d="M1950 2226 c0 -2 24 -18 53 -35 28 -16 67 -40 85 -51 17 -12 32 -19
32 -16 0 6 -92 66 -139 90 -17 9 -31 15 -31 12z"/>
<path d="M851 2177 c-1 -28 38 -132 46 -123 3 2 -1 15 -8 28 -7 12 -18 46 -25
73 -9 37 -13 42 -13 22z"/>
<path d="M830 2148 c0 -20 46 -128 55 -128 3 0 0 10 -6 22 -7 12 -20 45 -30
73 -10 27 -18 42 -19 33z"/>
<path d="M443 2058 c-55 -58 -110 -132 -134 -182 -10 -23 -14 -32 -7 -22 7 10
30 44 50 75 20 31 60 82 88 114 60 67 62 76 3 15z"/>
<path d="M2273 1991 c59 -57 138 -142 174 -190 71 -92 91 -116 78 -91 -39 71
-214 264 -310 343 -27 22 -1 -6 58 -62z"/>
<path d="M914 2016 c-17 -13 -19 -27 -19 -170 0 -86 -3 -156 -7 -156 -11 0
-35 41 -43 75 -11 50 -32 65 -92 65 -29 0 -53 -4 -53 -9 0 -5 -16 -28 -35 -51
-23 -27 -34 -49 -30 -60 3 -11 -4 -30 -20 -48 -18 -21 -25 -42 -25 -70 0 -36
5 -45 50 -82 47 -40 52 -41 69 -26 16 15 20 14 49 -23 l32 -39 -47 -27 c-26
-14 -54 -24 -62 -23 -9 2 -38 33 -66 70 -27 37 -53 67 -56 67 -4 1 -10 -7 -13
-16 -5 -11 5 -29 30 -54 34 -35 35 -39 21 -59 -12 -17 -13 -29 -5 -58 5 -20
14 -41 19 -46 5 -6 9 -15 9 -20 -1 -25 -40 39 -40 65 0 30 -13 38 -27 17 -17
-28 8 -77 50 -100 24 -12 46 15 47 56 0 24 3 27 23 23 48 -12 202 -18 186 -8
-9 6 -68 12 -131 13 l-113 3 4 33 c3 33 4 33 15 10 10 -21 19 -23 86 -26 70
-3 74 -2 55 13 -20 15 -19 16 15 46 19 18 29 29 23 25 -8 -4 -13 -1 -13 7 0 8
-14 29 -30 47 -28 30 -29 34 -15 50 8 9 12 20 8 24 -4 4 -1 5 7 2 8 -3 26 3
40 14 20 16 21 19 5 13 -18 -6 -19 -5 -5 11 9 12 0 9 -25 -8 -46 -32 -86 -31
-100 2 -13 28 -19 28 -44 -4 -12 -15 -21 -25 -22 -23 -7 32 -2 55 18 81 14 20
21 39 17 51 -4 12 -2 17 4 13 6 -3 13 2 16 11 2 10 4 -7 3 -39 -1 -31 1 -54 6
-51 4 2 7 -2 7 -9 0 -8 6 -22 13 -32 16 -22 44 -16 87 20 16 14 33 23 37 21 5
-3 8 6 8 19 0 13 -3 24 -7 24 -11 0 -9 42 2 60 8 13 10 13 10 -2 0 -24 27 -48
54 -48 18 0 28 -12 49 -61 15 -34 24 -66 20 -71 -3 -6 0 -35 7 -65 9 -35 16
-49 22 -41 5 8 8 2 8 -17 0 -16 7 -39 15 -49 8 -11 15 -40 15 -65 -1 -49 -21
-83 -55 -93 -11 -3 -29 -9 -40 -13 -19 -6 -19 -6 -2 8 24 19 5 32 -22 15 -16
-9 -19 -18 -13 -38 7 -27 8 -125 4 -527 -2 -240 -3 -253 -21 -253 -10 0 -24 7
-31 15 -7 8 -16 15 -21 15 -17 0 -9 -25 11 -38 11 -7 20 -18 19 -25 0 -9 -2
-9 -6 1 -4 10 -8 10 -19 1 -12 -9 -13 -9 -9 4 8 20 -10 30 -32 18 -10 -5 -30
-12 -45 -16 -57 -12 -25 -24 80 -30 59 -3 329 -8 599 -11 484 -4 493 -4 513
16 11 11 20 29 20 40 0 17 7 20 39 20 l38 0 38 269 c36 262 40 328 15 266 -11
-28 -22 -85 -51 -270 -6 -38 -12 -81 -14 -94 -3 -13 -7 -44 -11 -68 -6 -43
-23 -59 -25 -25 -1 9 -5 -1 -8 -23 -12 -72 -22 213 -11 310 5 50 10 122 10
161 l0 71 43 1 c31 1 48 8 64 27 12 14 20 32 17 40 -3 8 3 26 14 40 l20 25 6
-23 c7 -21 7 -21 16 -2 7 17 9 17 9 3 1 -11 6 -15 15 -12 11 4 17 -5 21 -30 4
-19 13 -40 21 -47 18 -15 18 -37 -6 -209 -32 -229 -42 -290 -51 -295 -15 -10
-21 58 -19 208 3 191 2 229 -9 202 -8 -20 -8 -20 -13 0 -8 37 -20 -364 -13
-441 8 -80 16 -91 56 -76 23 9 26 20 69 307 40 266 47 298 65 305 17 7 20 18
23 81 1 41 -2 97 -8 124 -8 43 -9 35 -5 -48 5 -119 -3 -147 -43 -147 -28 0
-30 2 -36 60 l-7 60 -64 0 c-35 0 -70 3 -79 6 -14 5 -16 -4 -16 -60 l0 -66
-69 0 c-68 0 -70 1 -74 28 l-4 27 -2 -28 c-1 -24 -4 -27 -23 -22 -20 5 -21 4
-5 -5 15 -10 17 -35 17 -280 l0 -270 -485 0 -485 0 2 341 3 341 40 14 c56 19
75 46 75 108 0 36 -9 69 -31 116 -17 36 -35 94 -40 130 -5 36 -18 77 -29 92
-17 23 -20 43 -20 138 l0 110 485 0 485 0 0 -160 c0 -137 2 -159 14 -148 8 7
12 16 10 19 -2 3 3 15 11 25 11 15 14 58 15 195 0 158 -2 178 -18 192 -17 15
-67 17 -513 17 -412 0 -498 -2 -515 -14z m994 -32 c15 -10 22 -23 20 -37 l-3
-22 -489 -2 c-269 -1 -495 -4 -503 -7 -22 -9 -17 60 6 76 14 10 113 12 482 10
396 -2 467 -5 487 -18z m-1148 -207 c0 -7 -6 -19 -12 -27 -11 -12 -10 -12 4
-2 10 9 18 9 22 3 4 -6 13 -8 21 -4 9 3 15 -1 15 -11 0 -9 -5 -16 -11 -16 -7
0 -10 -19 -7 -51 3 -50 2 -52 -31 -70 -26 -14 -38 -16 -48 -7 -19 15 -16 31 7
46 23 14 27 42 6 42 -25 0 -35 55 -16 91 12 21 50 26 50 6z m-78 -209 c10 -15
24 -21 49 -20 l34 1 -25 -19 c-35 -27 -44 -26 -108 16 -6 4 19 44 27 44 5 0
15 -10 23 -22z m1275 -835 l-2 -296 -28 -30 -28 -30 -468 0 c-257 0 -477 3
-488 7 -17 5 -19 12 -14 44 l6 37 485 2 c480 3 485 3 503 24 15 19 17 48 17
280 0 158 4 259 10 259 5 0 8 -114 7 -297z"/>
<path d="M1317 1964 c-17 -18 14 -24 114 -24 90 0 109 3 109 15 0 12 -19 15
-108 15 -60 0 -112 -3 -115 -6z"/>
<path d="M1340 436 c-7 -9 -10 -23 -6 -31 5 -13 22 -15 93 -13 86 3 88 3 88
28 0 24 -2 25 -81 28 -63 2 -84 -1 -94 -12z m160 -18 c0 -17 -7 -19 -72 -16
-61 3 -73 6 -76 21 -3 16 4 18 72 16 67 -2 76 -4 76 -21z"/>
<path d="M2095 1884 c-29 -31 -32 -59 -9 -68 22 -9 23 -8 17 13 -4 16 1 18 51
16 41 -1 56 2 56 12 0 8 -8 16 -17 19 -10 3 -30 12 -45 20 -26 14 -29 14 -53
-12z"/>
<path d="M2080 1779 c0 -16 61 -62 69 -52 4 3 0 8 -8 11 -8 3 -25 16 -38 30
-14 15 -23 20 -23 11z"/>
<path d="M2055 1690 c-17 -4 -40 -12 -50 -19 -18 -11 -18 -12 7 -7 14 3 33 9
42 12 11 4 16 1 16 -10 0 -9 15 -22 33 -29 33 -14 67 -12 67 5 0 5 -8 8 -17 7
-46 -4 -62 2 -65 24 -3 20 -7 22 -33 17z"/>
<path d="M1375 1665 c-37 -36 -30 -103 12 -119 14 -6 13 -2 -5 17 -27 29 -28
67 -2 95 37 39 110 18 110 -31 0 -9 5 -19 12 -23 8 -5 9 -2 5 10 -4 10 -7 22
-7 27 0 5 -9 18 -20 29 -28 28 -75 26 -105 -5z"/>
<path d="M2186 1648 c2 -24 9 -80 13 -126 8 -77 15 -102 25 -91 2 2 -1 36 -6
74 -5 39 -7 93 -4 121 5 42 3 53 -10 58 -24 9 -24 9 -18 -36z"/>
<path d="M2230 1660 c0 -7 8 -19 18 -26 9 -7 25 -43 34 -81 15 -60 16 -62 11
-18 -6 48 -5 49 12 35 11 -8 5 5 -12 31 -37 54 -63 78 -63 59z"/>
<path d="M840 1645 c0 -9 15 -31 33 -50 30 -31 33 -39 35 -107 1 -40 -4 -97
-12 -125 -8 -29 -10 -53 -5 -53 5 0 11 10 13 23 3 12 7 31 9 42 3 11 6 -2 7
-30 2 -48 3 -47 12 25 7 52 6 86 -2 113 -6 20 -8 42 -5 47 13 21 -51 130 -77
130 -4 0 -8 -7 -8 -15z"/>
<path d="M340 1613 c0 -4 10 -17 22 -30 20 -21 22 -22 35 -5 13 16 14 15 10
-5 -5 -24 7 -31 18 -12 10 16 -35 59 -62 59 -13 0 -23 -3 -23 -7z"/>
<path d="M470 1604 c0 -17 22 -54 32 -53 10 0 10 2 1 6 -22 8 -15 36 7 30 11
-3 20 -1 20 4 0 5 -3 10 -7 10 -23 4 -53 6 -53 3z"/>
<path d="M1978 1597 c20 -8 44 -29 62 -56 33 -51 30 -60 -33 -92 -21 -11 -37
-23 -34 -26 6 -5 94 44 102 57 7 11 -6 70 -15 67 -4 -1 -19 13 -34 31 -19 22
-36 32 -54 31 -26 0 -26 -1 6 -12z"/>
<path d="M2342 1514 c-26 -42 -60 -96 -75 -121 l-28 -45 -54 7 c-46 5 -55 4
-55 -9 0 -14 23 -16 178 -16 151 0 181 3 202 17 24 16 24 16 11 0 -19 -24 2
-21 23 2 19 21 50 17 42 -5 -3 -8 -2 -14 2 -14 10 0 152 233 152 249 0 8 -52
11 -175 11 l-176 0 -47 -76z m328 20 c0 -8 -11 -32 -25 -54 -14 -22 -25 -43
-25 -48 0 -17 -36 -40 -70 -45 -19 -3 -51 -10 -70 -16 -38 -12 -139 -15 -164
-5 -13 5 -12 13 10 52 53 94 83 131 112 134 15 2 73 2 130 0 81 -3 102 -6 102
-18z"/>
<path d="M1906 1533 c-3 -16 -7 -122 -10 -238 -3 -142 -2 -182 4 -125 9 99 21
390 15 390 -2 0 -6 -12 -9 -27z"/>
<path d="M1343 1510 c-12 -5 -26 -18 -32 -29 -18 -32 -13 -36 10 -7 11 14 27
26 35 26 8 0 14 5 14 10 0 6 -1 10 -2 9 -2 0 -13 -4 -25 -9z"/>
<path d="M454 1453 c14 -27 37 -61 51 -78 28 -32 24 -18 -7 27 -23 33 -23 52
-2 44 14 -5 15 -4 4 9 -7 8 -17 12 -23 8 -6 -3 -7 -1 -3 5 6 9 -21 32 -39 32
-3 0 6 -21 19 -47z"/>
<path d="M2081 1443 c34 -45 43 -50 77 -42 49 11 53 21 6 13 -36 -5 -42 -3
-57 20 -10 14 -22 26 -28 26 -8 0 -7 -6 2 -17z"/>
<path d="M2690 1388 c0 -11 69 -190 70 -181 0 14 -60 183 -66 183 -2 0 -4 -1
-4 -2z"/>
<path d="M2054 1294 c-3 -19 -2 -50 4 -67 9 -29 10 -25 11 36 1 74 -5 86 -15
31z"/>
<path d="M2221 1283 c0 -16 4 -46 8 -68 7 -38 8 -39 15 -14 7 24 -8 109 -19
109 -3 0 -5 -12 -4 -27z"/>
<path d="M660 1275 c0 -12 15 -15 75 -15 60 0 75 3 75 15 0 18 -46 21 -53 3
-4 -10 -6 -10 -6 0 -1 6 -12 12 -25 12 -13 0 -27 -6 -29 -12 -4 -10 -6 -10 -6
0 -1 17 -31 15 -31 -3z"/>
<path d="M838 1283 c-25 -6 -22 -23 3 -23 12 0 27 -7 34 -16 16 -23 55 -2 54
29 -1 15 -3 17 -6 5 -7 -25 -32 -30 -45 -8 -7 11 -15 19 -18 19 -3 -1 -13 -3
-22 -6z"/>
<path d="M1513 1263 c37 -2 97 -2 135 0 37 2 6 3 -68 3 -74 0 -105 -1 -67 -3z"/>
<path d="M1143 1228 c-2 -5 -2 -8 1 -8 63 -4 285 0 284 5 -4 9 -279 11 -285 3z"/>
<path d="M691 1204 c0 -18 6 -37 15 -45 15 -12 18 -86 4 -99 -16 -16 -69 -133
-64 -142 4 -7 2 -8 -4 -4 -7 4 -18 -7 -28 -26 -9 -18 -22 -36 -28 -40 -8 -6
-8 -10 1 -16 12 -7 43 -142 43 -187 0 -19 -5 -25 -21 -25 -27 0 -52 58 -75
173 -16 81 -16 92 0 154 9 36 32 103 52 147 43 97 52 126 35 110 -20 -18 -91
-192 -108 -266 -16 -65 -16 -74 0 -151 9 -45 24 -106 33 -134 l16 -53 49 0 49
0 -5 43 c-3 23 -13 77 -22 119 l-16 78 38 57 c75 112 92 148 84 168 -4 11 -9
52 -10 90 -1 57 -3 63 -9 35 -7 -36 -15 -29 -23 20 -4 21 -4 20 -6 -6z"/>
<path d="M801 1222 c-1 -19 29 -61 53 -74 16 -8 13 -2 -10 23 -17 19 -34 41
-37 49 -4 10 -6 11 -6 2z"/>
<path d="M1513 1183 c37 -2 97 -2 135 0 37 2 6 3 -68 3 -74 0 -105 -1 -67 -3z"/>
<path d="M270 1164 c-1 -30 172 -265 186 -251 2 2 -17 26 -42 53 -45 48 -96
120 -127 179 -9 17 -16 25 -17 19z"/>
<path d="M1418 1123 c56 -2 148 -2 205 0 56 1 10 3 -103 3 -113 0 -159 -2
-102 -3z"/>
<path d="M1428 1043 c50 -2 134 -2 185 0 50 1 9 3 -93 3 -102 0 -143 -2 -92
-3z"/>
<path d="M753 990 c3 -19 15 -117 28 -217 l23 -183 34 0 c20 0 31 4 27 10 -3
6 -12 10 -20 10 -17 0 -21 18 -50 216 -13 90 -29 172 -35 182 -9 14 -10 10 -7
-18z"/>
<path d="M1292 923 l3 -38 133 -3 132 -3 0 41 0 40 -136 0 -135 0 3 -37z m188
-3 c0 -5 -22 -10 -50 -10 -27 0 -50 5 -50 10 0 6 23 10 50 10 28 0 50 -4 50
-10z"/>
<path d="M2503 895 l-51 -55 -64 0 c-41 0 -71 -5 -86 -16 -32 -22 -27 -37 8
-19 16 8 49 15 74 15 55 0 95 14 121 44 11 12 16 17 12 10 -4 -7 -4 -15 1 -18
5 -3 14 6 21 21 6 14 14 23 17 20 9 -9 -16 -47 -65 -101 -25 -28 -36 -42 -23
-32 l22 19 0 -46 c0 -26 4 -47 10 -47 12 0 80 -59 80 -70 0 -5 -8 -11 -17 -14
-10 -3 0 -3 22 0 22 3 55 14 73 25 37 21 46 24 37 9 -13 -21 -85 -50 -127 -52
-38 -1 -39 -2 -10 -5 33 -4 33 -5 16 -24 -9 -10 -22 -29 -29 -42 -8 -17 -18
-21 -40 -19 -17 2 -61 5 -100 7 -38 2 -74 4 -80 5 -5 1 -18 2 -27 1 -10 -1
-18 3 -18 10 0 8 -4 8 -15 -1 -18 -15 -20 1 -2 19 9 11 7 10 -10 0 -30 -18
-29 -27 2 -35 14 -3 25 -10 25 -15 0 -22 38 -28 88 -12 47 15 54 15 89 0 74
-32 99 -27 114 24 13 43 36 59 87 59 50 1 88 50 77 100 -10 45 -49 48 -85 6
-24 -29 -63 -19 -109 28 l-44 45 19 29 c11 17 32 47 48 67 18 22 29 47 28 65
-2 67 -25 66 -89 -5z"/>
<path d="M573 567 c1 -5 24 -10 50 -11 27 -1 46 2 44 8 -2 5 -24 10 -50 11
-26 0 -46 -3 -44 -8z"/>
<path d="M810 540 c0 -25 4 -30 24 -30 14 0 28 5 31 10 3 6 -3 10 -14 10 -32
0 -36 20 -4 21 25 0 26 1 8 9 -36 15 -45 11 -45 -20z"/>
<path d="M580 530 c0 -5 20 -10 45 -10 25 0 45 5 45 10 0 6 -20 10 -45 10 -25
0 -45 -4 -45 -10z"/>
<path d="M588 418 c-16 -17 -37 -28 -53 -28 -20 0 -26 -4 -23 -17 3 -14 13
-16 58 -14 30 2 71 4 90 5 30 1 35 5 38 29 3 22 -1 27 -18 27 -11 0 -31 6 -43
13 -20 12 -25 11 -49 -15z"/>
<path d="M2190 414 c0 -15 37 -33 67 -34 17 0 34 -4 37 -9 9 -15 -281 -26
-299 -11 -15 12 -35 6 -35 -11 0 -11 70 -11 238 -2 114 6 120 7 111 25 -5 10
-20 18 -32 18 -12 0 -35 7 -51 15 -32 17 -36 18 -36 9z"/>
<path d="M2042 398 c7 -20 67 -34 81 -18 10 10 9 12 -4 7 -9 -3 -29 1 -44 9
-33 17 -38 17 -33 2z"/>
</g>
</svg>
